<?xml version="1.0" encoding="utf-8"?>
<!-- Generator: Adobe Illustrator 18.1.1, SVG Export Plug-In . SVG Version: 6.00 Build 0)  -->
<svg version="1.1" id="Layer_1" xmlns="http://www.w3.org/2000/svg" xmlns:xlink="http://www.w3.org/1999/xlink" x="0px" y="0px"
	 viewBox="0 0 500 500" enable-background="new 0 0 500 500" xml:space="preserve">
<g>
	<g>
		<path fill="#263238" d="M247.3,222l20.7,20.2v28.3c0,4.2-3.7,7.5-7.9,7.5h-24.8c-4.2,0-7.3-3.3-7.3-7.5v-41.2
			c0-4.2,3.1-7.3,7.3-7.3H247 M249.3,217h-14c-6.9,0-12.3,5.4-12.3,12.3v41.2c0,6.9,5.4,12.5,12.3,12.5h24.8
			c6.9,0,12.9-5.6,12.9-12.5v-30.4L249.3,217L249.3,217z"/>
	</g>
	<g>
		<path fill="#263238" d="M244,217v15.4c0,7.2,5.5,12.6,12.7,12.6H273v-4.9L249.3,217H244z"/>
	</g>
	<g>
		<path fill="#263238" d="M232.7,267.3V253h3.9c1.5,0,2.8,0.6,3.7,1.7s1.4,2.6,1.4,4.4v2c0,1.8-0.5,3.3-1.4,4.4
			c-1,1.1-2.2,1.7-3.7,1.7H232.7z M234.7,254.5v11.3h1.9c1,0,1.8-0.4,2.4-1.3s0.9-2,0.9-3.3v-2.1c0-1.4-0.3-2.5-0.9-3.3
			c-0.6-0.9-1.4-1.3-2.4-1.3H234.7z"/>
		<path fill="#263238" d="M253.2,262.1c0,1.7-0.4,3-1.3,4c-0.9,0.9-2.1,1.4-3.5,1.4c-1.5,0-2.6-0.5-3.5-1.4s-1.3-2.3-1.3-4v-3.9
			c0-1.7,0.4-3,1.3-4s2-1.4,3.5-1.4c1.5,0,2.6,0.5,3.5,1.4c0.9,1,1.3,2.3,1.3,4V262.1z M251.2,258.1c0-1.2-0.2-2.2-0.7-2.8
			c-0.5-0.6-1.2-1-2.1-1c-0.9,0-1.6,0.3-2.1,1s-0.7,1.6-0.7,2.8v4c0,1.3,0.2,2.2,0.7,2.9c0.5,0.6,1.2,1,2.1,1c0.9,0,1.6-0.3,2.1-1
			s0.7-1.6,0.7-2.9V258.1z"/>
		<path fill="#263238" d="M264,262.9L264,262.9c0,1.5-0.4,2.6-1.1,3.4c-0.8,0.8-1.8,1.2-3.2,1.2c-1.4,0-2.5-0.5-3.4-1.4
			s-1.3-2.3-1.3-4v-4c0-1.7,0.4-3,1.2-4c0.8-1,1.9-1.4,3.3-1.4c1.4,0,2.5,0.4,3.2,1.2c0.8,0.8,1.1,1.9,1.2,3.4l0,0.1h-1.9
			c0-1.1-0.2-1.8-0.6-2.3c-0.4-0.5-1-0.7-1.9-0.7c-0.8,0-1.5,0.3-1.9,1c-0.5,0.7-0.7,1.6-0.7,2.8v4c0,1.2,0.2,2.2,0.7,2.9
			c0.5,0.7,1.1,1,2,1c0.8,0,1.4-0.2,1.8-0.7c0.4-0.5,0.6-1.3,0.6-2.3H264z"/>
	</g>
</g>
<g>
</g>
<g>
</g>
<g>
</g>
<g>
</g>
<g>
</g>
<g>
</g>
<g>
</g>
<g>
</g>
<g>
</g>
<g>
</g>
<g>
</g>
<g>
</g>
<g>
</g>
<g>
</g>
<g>
</g>
</svg>
