<?xml version="1.0" encoding="utf-8"?>
<!-- Generator: Adobe Illustrator 18.1.1, SVG Export Plug-In . SVG Version: 6.00 Build 0)  -->
<svg version="1.1" id="Layer_1" xmlns="http://www.w3.org/2000/svg" xmlns:xlink="http://www.w3.org/1999/xlink" x="0px" y="0px"
	 viewBox="0 0 500 500" enable-background="new 0 0 500 500" xml:space="preserve">
<g>
	<g>
		<path fill="#263238" d="M247.8,222l20.2,20.5v28.3c0,4.2-3.1,7.2-7.3,7.2h-24.8c-4.2,0-7.8-3-7.8-7.2v-41.2c0-4.2,3.7-7.6,7.8-7.6
			H248 M249.9,217h-14c-6.9,0-12.8,5.6-12.8,12.6v41.2c0,6.9,5.9,12.2,12.8,12.2h24.8c6.9,0,12.3-5.3,12.3-12.2v-30.4L249.9,217
			L249.9,217z"/>
	</g>
	<g>
		<path fill="#263238" d="M244,217v15.6c0,7.2,6.1,13.4,13.3,13.4H273v-5.6L249.9,217H244z"/>
	</g>
	<g>
		<path fill="#263238" d="M235.3,261.9v5.7h-2v-14.3h4.7c1.3,0,2.4,0.4,3.2,1.2c0.8,0.8,1.1,1.8,1.1,3.1c0,1.3-0.4,2.4-1.1,3.1
			c-0.8,0.8-1.8,1.2-3.2,1.2H235.3z M235.3,260.4h2.7c0.8,0,1.3-0.3,1.7-0.8c0.4-0.5,0.6-1.2,0.6-2c0-0.8-0.2-1.5-0.6-2
			s-1-0.8-1.7-0.8h-2.7V260.4z"/>
		<path fill="#263238" d="M244.4,267.6v-14.3h3.9c1.5,0,2.8,0.6,3.7,1.7c1,1.1,1.4,2.6,1.4,4.4v2c0,1.8-0.5,3.3-1.4,4.4
			c-1,1.1-2.2,1.7-3.7,1.7H244.4z M246.4,254.8v11.3h1.9c1,0,1.8-0.4,2.4-1.3s0.9-2,0.9-3.3v-2.1c0-1.4-0.3-2.5-0.9-3.3
			c-0.6-0.9-1.4-1.3-2.4-1.3H246.4z"/>
		<path fill="#263238" d="M263.1,261.2h-5.3v6.4h-2v-14.3h8.2v1.5h-6.2v4.9h5.3V261.2z"/>
	</g>
</g>
<g>
</g>
<g>
</g>
<g>
</g>
<g>
</g>
<g>
</g>
<g>
</g>
<g>
</g>
<g>
</g>
<g>
</g>
<g>
</g>
<g>
</g>
<g>
</g>
<g>
</g>
<g>
</g>
<g>
</g>
</svg>
