<?xml version="1.0" encoding="utf-8"?>
<!-- Generator: Adobe Illustrator 18.1.1, SVG Export Plug-In . SVG Version: 6.00 Build 0)  -->
<svg version="1.1" id="Layer_1" xmlns="http://www.w3.org/2000/svg" xmlns:xlink="http://www.w3.org/1999/xlink" x="0px" y="0px"
	 viewBox="0 0 500 500" enable-background="new 0 0 500 500" xml:space="preserve">
<path fill="#263238" d="M-3130.7-7142.2v6.5l-5.8,5.8c-0.4,0.4-0.8,0.6-1.4,0.6s-1-0.2-1.4-0.6l-1.9-1.9l-0.1-0.1l-1.9-1.9
	c-0.7-0.7-0.7-2,0-2.7l5.8-5.8H-3130.7 M-3129.4-7143.5L-3129.4-7143.5l-7.8,0.1c-0.3,0-0.5,0.1-0.7,0.3l-5.9,5.9
	c-1.2,1.2-1.2,3.3,0,4.5l1.9,1.9l0.1,0.1l1.9,1.9c0.6,0.6,1.4,0.9,2.2,0.9c0.8,0,1.6-0.3,2.2-0.9l5.9-5.9c0.2-0.2,0.3-0.5,0.3-0.7
	v-7.8V-7143.5L-3129.4-7143.5L-3129.4-7143.5L-3129.4-7143.5z"/>
<path fill="#263238" d="M-3133.8-7137.5c-0.4,0-0.9-0.2-1.2-0.5c-0.6-0.6-0.6-1.7,0-2.3c0.3-0.3,0.7-0.5,1.2-0.5
	c0.4,0,0.9,0.2,1.2,0.5c0.6,0.6,0.6,1.7,0,2.3C-3132.9-7137.7-3133.3-7137.5-3133.8-7137.5z M-3133.8-7140.2c-0.3,0-0.5,0.1-0.7,0.3
	c-0.4,0.4-0.4,1.1,0,1.5c0.2,0.2,0.5,0.3,0.7,0.3c0.3,0,0.5-0.1,0.7-0.3c0.4-0.4,0.4-1.1,0-1.5
	C-3133.2-7140.1-3133.5-7140.2-3133.8-7140.2z"/>
<path fill="#263238" d="M266,234.1v16.3L251.4,265c-0.9,0.9-2.1,1.4-3.4,1.4c-1.3,0-2.5-0.5-3.4-1.4l-4.7-4.7l-0.2-0.2l-4.7-4.7
	c-1.9-1.9-1.9-4.9,0-6.8l14.6-14.6H266 M269.2,230.7l-0.2,0.2h-19.6c-0.7,0-1.3,0.3-1.8,0.8l-14.8,14.8c-3.1,3.1-3.1,8.2,0,11.3
	l4.7,4.7l0.2,0.2l4.7,4.7c1.6,1.6,3.6,2.3,5.7,2.3c2.1,0,4.1-0.8,5.7-2.3l14.8-14.8c0.5-0.5,0.8-1.1,0.8-1.8v-19.6l0.2-0.2h-0.2
	V230.7L269.2,230.7z"/>
<path fill="#263238" d="M258.3,246c-1.1,0-2.2-0.4-3-1.2c-1.6-1.6-1.6-4.3,0-5.9c0.8-0.8,1.8-1.2,3-1.2c1.1,0,2.2,0.4,3,1.2
	c1.6,1.6,1.6,4.3,0,5.9C260.4,245.6,259.4,246,258.3,246z M258.3,239.2c-0.7,0-1.3,0.3-1.8,0.8c-1,1-1,2.7,0,3.7
	c0.5,0.5,1.1,0.8,1.8,0.8s1.3-0.3,1.8-0.8c1-1,1-2.7,0-3.7C259.6,239.5,259,239.2,258.3,239.2z"/>
<g>
</g>
<g>
</g>
<g>
</g>
<g>
</g>
<g>
</g>
<g>
</g>
<g>
</g>
<g>
</g>
<g>
</g>
<g>
</g>
<g>
</g>
<g>
</g>
<g>
</g>
<g>
</g>
<g>
</g>
</svg>
