<?xml version="1.0" encoding="utf-8"?>
<!-- Generator: Adobe Illustrator 18.1.1, SVG Export Plug-In . SVG Version: 6.00 Build 0)  -->
<svg version="1.1" id="Layer_1" xmlns="http://www.w3.org/2000/svg" xmlns:xlink="http://www.w3.org/1999/xlink" x="0px" y="0px"
	 viewBox="0 0 500 500" enable-background="new 0 0 500 500" xml:space="preserve">
<g>
	<g>
		<path fill="#FFFFFF" d="M109.4,224.4h25.4v6.7h-17.5v8.4h15.1v6.2h-15.1v14.9h-7.9V224.4z"/>
	</g>
	<g>
		<path fill="#FFFFFF" d="M178.8,224.4h7.9v36.1h-7.9V224.4z"/>
	</g>
	<g>
		<path fill="#263238" d="M155.8,261.3c-10.4,0-18.8-8.4-18.8-18.8c0-10.4,8.4-18.8,18.8-18.8c10.4,0,18.8,8.4,18.8,18.8
			C174.6,252.9,166.2,261.3,155.8,261.3z M155.8,231.7c-6,0-10.8,4.9-10.8,10.8s4.9,10.8,10.8,10.8s10.8-4.9,10.8-10.8
			S161.7,231.7,155.8,231.7z"/>
	</g>
	<g>
		
			<rect x="131.5" y="249.1" transform="matrix(0.7071 0.7071 -0.7071 0.7071 225.9963 -18.6537)" fill="#263238" width="8" height="28.7"/>
	</g>
	<g>
		<path fill="#F2F2F2" d="M206,224.4h25.4v6.7H214v8.4h15.1v6.2H214v14.9H206V224.4z"/>
		<path fill="#F2F2F2" d="M236,224.4h7.9v36.1H236V224.4z"/>
		<path fill="#F2F2F2" d="M251,224.4h7.9l15.1,24.3h0.1v-24.3h7.4v36.1h-7.9l-15-24.2h-0.1v24.2H251V224.4z"/>
		<path fill="#F2F2F2" d="M288.5,224.4h15.6c9.4,0,16.4,5.9,16.4,17.9c0,10.5-5.4,18.3-16.4,18.3h-15.6V224.4z M296.4,253.8h7.1
			c4.6,0,9-2.8,9-10.8c0-7.3-2.5-11.9-10.4-11.9h-5.7V253.8z"/>
		<path fill="#F2F2F2" d="M326,224.4h27v6.7H334v7.7h17.5v6.2H334v8.9h19.5v6.7H326V224.4z"/>
		<path fill="#F2F2F2" d="M358.8,224.4h19.5c6.5,0,10.6,4.5,10.6,10c0,4.3-1.7,7.4-5.7,9.1v0.1c3.9,1,5,4.8,5.3,8.5
			c0.2,2.3,0.1,6.5,1.5,8.6H382c-1-2.3-0.9-5.8-1.3-8.7c-0.6-3.8-2-5.5-6-5.5h-7.9v14.1h-7.9V224.4z M366.8,240.7h8.7
			c3.5,0,5.5-1.5,5.5-5.2c0-3.5-1.9-5-5.5-5h-8.7V240.7z"/>
	</g>
</g>
<g>
</g>
<g>
</g>
<g>
</g>
<g>
</g>
<g>
</g>
<g>
</g>
<g>
</g>
<g>
</g>
<g>
</g>
<g>
</g>
<g>
</g>
<g>
</g>
<g>
</g>
<g>
</g>
<g>
</g>
</svg>
